<svg id="Layer_1" data-name="Layer 1" xmlns="http://www.w3.org/2000/svg" viewBox="0 0 4096 1024"><defs><style>.cls-1{fill:#1ca37f;}.cls-2{font-size:750px;fill:#bababa;font-family:MicrosoftSansSerif, Microsoft Sans Serif;}</style></defs><path class="cls-1" d="M381.12,342.86s10.58,529.29,13.12,531,52.21-6.89,88.55-25a225.06,225.06,0,0,0,60.09-44.22,51.47,51.47,0,0,1-6-2.54c-2.35-1.27-3.49-1.82-3.64-3S553.6,773.71,566.78,755s27-54.33,27-54.33a62.79,62.79,0,0,1-9.42.34c-3.5-.3-6.44-.13-7.08-1.35s18.87-31,26.62-61.32,8.81-65.46,8.81-65.46A63.42,63.42,0,0,1,602,574c-4.21-.13-7-.3-7.82-1.09s4.13-15,7.73-42.27A204.44,204.44,0,0,0,602.1,480a54.38,54.38,0,0,1-9.2,2.61c-3.61.49-6.82.56-7.82.16s-2.76-24.65-6.44-45.07S566,393.83,566,393.83s-3.73,5.93-6.08,7.62-5,4-6.19,3.62-5.08-28.42-14.62-45.75l-19.78-35.95s-3.12,5.08-4.6,7.07-3.58,5.21-4.55,5.16-7.7-32-12.63-42.55-13.38-23.22-13.38-23.22a53.65,53.65,0,0,1-3.22,4.53c-1.22,1.42-2.71,2.85-3.18,2.84s-9.44-21.7-16-31.65-18.4-28-18.4-28-3.45,5.33-5.25,7.48-3.95,5-4.52,5-5.06-14.85-12.48-26.42-12.12-15.16-20.72-26.23S387.89,161,386,157.79s-3.8-7.81-4.86-7.81-3,4.61-4.87,7.81-5.75,8.52-14.34,19.6-13.31,14.67-20.73,26.23S329.28,230,328.71,230s-2.73-2.87-4.53-5-5.25-7.48-5.25-7.48-11.8,18.06-18.4,28-15.56,31.64-16,31.65-1.95-1.42-3.18-2.84a53.65,53.65,0,0,1-3.22-4.53s-8.46,12.64-13.38,23.22-11.66,42.5-12.63,42.55-3.07-3.17-4.55-5.16-4.6-7.07-4.6-7.07l-19.78,35.95c-9.54,17.33-13.49,45.42-14.62,45.75s-3.84-1.94-6.19-3.62-6.08-7.62-6.08-7.62-9,23.46-12.68,43.88-5.44,44.66-6.44,45.07-4.21.33-7.82-.16a54.38,54.38,0,0,1-9.2-2.61,204.44,204.44,0,0,0,.17,50.59c3.6,27.23,8.54,41.49,7.73,42.27s-3.61,1-7.82,1.09a63.25,63.25,0,0,1-10.68-1.09s1,35.2,8.8,65.46,27.26,60.1,26.62,61.32-3.58,1.05-7.08,1.35a62.79,62.79,0,0,1-9.42-.34s13.81,35.61,27,54.33,33.71,43,33.56,44.14-1.29,1.68-3.64,3a51.47,51.47,0,0,1-6,2.54,225.06,225.06,0,0,0,60.09,44.22c36.35,18.09,86,26.65,88.55,25S381.12,342.86,381.12,342.86Z"/><text class="cls-2" transform="translate(718.23 808)">Documint</text></svg>