<svg id="Layer_1" data-name="Layer 1" xmlns="http://www.w3.org/2000/svg" viewBox="0 0 1280 640"><defs><style>.cls-1{font-size:200px;fill:#bababa;font-family:MicrosoftSansSerif, Microsoft Sans Serif;}.cls-2{fill:#1ca37f;}</style></defs><text class="cls-1" transform="translate(188.99 508.87)">Documint</text><path class="cls-2" d="M640,179.4s3.71,185.65,4.6,186.23,18.31-2.41,31.06-8.76a79,79,0,0,0,21.08-15.51,18.32,18.32,0,0,1-2.11-.89c-.82-.44-1.23-.64-1.28-1s7.15-8.92,11.77-15.49,9.47-19.05,9.47-19.05a23.22,23.22,0,0,1-3.3.12c-1.23-.11-2.26,0-2.48-.48s6.61-10.89,9.33-21.5a121.84,121.84,0,0,0,3.09-23,23,23,0,0,1-3.75.38c-1.47,0-2.45-.11-2.74-.38s1.45-5.28,2.71-14.83a71.83,71.83,0,0,0,.06-17.74,19.14,19.14,0,0,1-3.23.91,7.8,7.8,0,0,1-2.74.05c-.35-.14-1-8.64-2.26-15.8a101.65,101.65,0,0,0-4.44-15.4A13.69,13.69,0,0,1,702.7,200c-.82.59-1.77,1.39-2.17,1.27s-1.78-10-5.12-16.05l-6.94-12.61s-1.1,1.78-1.62,2.48-1.25,1.83-1.59,1.81-2.71-11.21-4.43-14.92a74.46,74.46,0,0,0-4.7-8.15s-.7,1.09-1.13,1.59-1,1-1.11,1-3.31-7.62-5.63-11.1-6.45-9.83-6.45-9.83-1.21,1.87-1.84,2.62-1.39,1.77-1.59,1.77-1.77-5.21-4.37-9.27-4.26-5.32-7.27-9.2a81.22,81.22,0,0,1-5-6.88c-.67-1.12-1.34-2.74-1.71-2.74s-1,1.62-1.71,2.74a81.22,81.22,0,0,1-5,6.88c-3,3.88-4.66,5.14-7.27,9.2s-4.17,9.27-4.37,9.27-1-1-1.59-1.77-1.84-2.62-1.84-2.62-4.14,6.34-6.45,9.83-5.46,11.09-5.63,11.1-.68-.5-1.11-1-1.13-1.59-1.13-1.59a74.46,74.46,0,0,0-4.7,8.15c-1.72,3.71-4.08,14.9-4.43,14.92s-1.07-1.11-1.59-1.81-1.62-2.48-1.62-2.48l-6.94,12.61c-3.34,6.08-4.72,15.93-5.12,16.05s-1.35-.68-2.17-1.27a13.69,13.69,0,0,1-2.14-2.68,101.65,101.65,0,0,0-4.44,15.4c-1.29,7.16-1.91,15.66-2.26,15.8a7.8,7.8,0,0,1-2.74-.05,19.14,19.14,0,0,1-3.23-.91,71.83,71.83,0,0,0,.06,17.74c1.26,9.55,3,14.55,2.71,14.83s-1.27.33-2.74.38a23,23,0,0,1-3.75-.38,121.84,121.84,0,0,0,3.09,23c2.72,10.61,9.56,21.08,9.33,21.5s-1.25.37-2.48.48a23.22,23.22,0,0,1-3.3-.12s4.84,12.49,9.47,19.05S586.7,339,586.65,339.44s-.46.59-1.28,1a18.32,18.32,0,0,1-2.11.89,79,79,0,0,0,21.08,15.51c12.75,6.35,30.17,9.35,31.06,8.76S640,179.4,640,179.4"/></svg>